<svg width="158" height="30" viewBox="0 0 158 30" fill="none" xmlns="http://www.w3.org/2000/svg">
<mask id="mask0_21_1240" style="mask-type:luminance" maskUnits="userSpaceOnUse" x="0" y="0" width="28" height="29">
<path d="M0 0.906494H27.9353V28.8418H0V0.906494Z" fill="white"/>
</mask>
<g mask="url(#mask0_21_1240)">
<path d="M13.982 0.906494C12.6189 12.4211 11.5146 13.5254 0 14.8885C0.0249233 14.8904 0.0479298 14.8943 0.0728531 14.8962C11.5185 16.2555 12.6228 17.379 13.982 28.8706C15.3452 17.3559 16.4495 16.2516 27.9641 14.8885C16.4495 13.5254 15.3452 12.4211 13.982 0.906494Z" fill="white"/>
</g>
<path d="M46.3095 25.2703C47.8221 25.2703 49.2255 24.906 50.5196 24.1736C51.8118 23.4432 52.9046 22.4769 53.7941 21.2749L56.6546 24.0203C55.4008 25.508 53.8804 26.7235 52.0917 27.6629C50.301 28.6043 48.3743 29.074 46.3095 29.074C44.4268 29.074 42.6476 28.6944 40.972 27.939C39.3002 27.1836 37.8508 26.1579 36.6238 24.8638C35.3968 23.5716 34.4229 22.0552 33.702 20.3163C32.985 18.5793 32.6284 16.7407 32.6284 14.8024C32.6284 12.845 32.985 11.0045 33.702 9.28094C34.4229 7.55356 35.3968 6.04281 36.6238 4.74871C37.8508 3.45653 39.3002 2.43084 40.972 1.67355C42.6476 0.918177 44.4268 0.538574 46.3095 0.538574C48.0579 0.538574 49.7086 0.887502 51.2635 1.58152C52.8221 2.27171 54.2159 3.17662 55.4429 4.29626L53.0119 7.39443C52.1473 6.47993 51.1408 5.7284 49.9905 5.13982C48.8401 4.55316 47.6131 4.25791 46.3095 4.25791C44.9751 4.25791 43.7251 4.53974 42.5594 5.10148C41.3976 5.66513 40.3854 6.42817 39.5226 7.39443C38.6637 8.36069 37.9774 9.47841 37.4674 10.7457C36.9555 12.0148 36.7005 13.3665 36.7005 14.8024C36.7005 16.2442 36.9555 17.5996 37.4674 18.8669C37.9774 20.1303 38.6637 21.2403 39.5226 22.1951C40.3854 23.1518 41.3976 23.9033 42.5594 24.4497C43.7251 24.998 44.9751 25.2703 46.3095 25.2703Z" fill="white"/>
<path d="M68.3401 29.0877C67.0307 29.0877 65.8056 28.8346 64.6668 28.3285C63.5318 27.8185 62.5387 27.1168 61.6913 26.2272C60.842 25.3376 60.169 24.2928 59.6744 23.0907C59.1779 21.8905 58.9305 20.6099 58.9305 19.2487C58.9305 17.8894 59.1779 16.6087 59.6744 15.4066C60.169 14.2065 60.842 13.1597 61.6913 12.2701C62.5387 11.3805 63.5318 10.6827 64.6668 10.1765C65.8056 9.66657 67.0307 9.40967 68.3401 9.40967C69.6169 9.40967 70.8324 9.66657 71.9827 10.1765C73.1331 10.6827 74.1319 11.3805 74.9812 12.2701C75.8286 13.1597 76.5015 14.2065 76.9981 15.4066C77.4985 16.6087 77.7496 17.8894 77.7496 19.2487C77.7496 20.6099 77.4985 21.8905 76.9981 23.0907C76.5015 24.2928 75.8286 25.3376 74.9812 26.2272C74.1319 27.1168 73.1331 27.8185 71.9827 28.3285C70.8324 28.8346 69.6169 29.0877 68.3401 29.0877ZM68.3401 12.8223C67.5828 12.8223 66.8639 12.9948 66.1852 13.3361C65.5046 13.6735 64.9083 14.1317 64.3984 14.7088C63.8865 15.282 63.4877 15.9588 63.202 16.741C62.9145 17.5232 62.7726 18.3591 62.7726 19.2487C62.7726 20.1382 62.9145 20.978 63.202 21.764C63.4877 22.5462 63.8865 23.2326 64.3984 23.8192C64.9083 24.4078 65.5046 24.8737 66.1852 25.2149C66.8639 25.5524 67.5828 25.7211 68.3401 25.7211C69.0955 25.7211 69.8144 25.5524 70.495 25.2149C71.1737 24.8737 71.7623 24.4078 72.2588 23.8192C72.7535 23.2326 73.1446 22.5462 73.4321 21.764C73.7235 20.978 73.8693 20.1382 73.8693 19.2487C73.8693 18.3591 73.7235 17.5232 73.4321 16.741C73.1446 15.9588 72.7535 15.282 72.2588 14.7088C71.7623 14.1317 71.1737 13.6735 70.495 13.3361C69.8144 12.9948 69.0955 12.8223 68.3401 12.8223Z" fill="white"/>
<path d="M98.7628 0V28.6198H95.7413L94.9591 26.6566C94.1961 27.4196 93.3333 28.0139 92.3671 28.4434C91.4008 28.8728 90.2908 29.0875 89.0388 29.0875C87.7294 29.0875 86.5254 28.8345 85.4269 28.3283C84.3322 27.8184 83.3793 27.1167 82.5664 26.2271C81.7574 25.3375 81.1247 24.2927 80.6646 23.0906C80.2083 21.8904 79.9821 20.6097 79.9821 19.2485C79.9821 17.8893 80.2083 16.6086 80.6646 15.4065C81.1247 14.2063 81.7574 13.1596 82.5664 12.27C83.3793 11.3804 84.3322 10.6826 85.4269 10.1764C86.5254 9.66645 87.7294 9.40955 89.0388 9.40955C90.3425 9.40955 91.4775 9.62811 92.4438 10.0614C93.4139 10.4908 94.2536 11.0967 94.9591 11.8789V0H98.7628ZM89.3533 25.721C90.1355 25.721 90.8583 25.5906 91.5235 25.3299C92.1926 25.0653 92.7812 24.6665 93.2873 24.1335C93.7973 23.5967 94.1961 22.9257 94.4836 22.1167C94.7751 21.3038 94.9208 20.349 94.9208 19.2485C94.9208 18.0733 94.7751 17.0821 94.4836 16.2731C94.1961 15.4602 93.7973 14.8007 93.2873 14.2945C92.7812 13.7846 92.1926 13.4184 91.5235 13.1979C90.8583 12.9736 90.1355 12.8605 89.3533 12.8605C88.5902 12.8605 87.8694 13.0254 87.1907 13.3513C86.5158 13.6791 85.9272 14.1316 85.4269 14.7086C84.9303 15.2819 84.5392 15.9587 84.2535 16.7409C83.966 17.5231 83.8241 18.359 83.8241 19.2485C83.8241 20.1381 83.966 20.9778 84.2535 21.7639C84.5392 22.5461 84.9303 23.2325 85.4269 23.8191C85.9272 24.4077 86.5158 24.8736 87.1907 25.2148C87.8694 25.5523 88.5902 25.721 89.3533 25.721Z" fill="white"/>
<path d="M121.3 9.83912V28.6199H118.087L117.496 26.465C116.84 27.3296 116.004 27.9834 114.988 28.4282C113.97 28.8672 112.937 29.0877 111.89 29.0877C110.587 29.0877 109.363 28.8346 108.225 28.3285C107.09 27.8185 106.096 27.1168 105.249 26.2272C104.4 25.3376 103.725 24.2928 103.225 23.0907C102.728 21.8905 102.481 20.6099 102.481 19.2487C102.481 17.8894 102.728 16.6087 103.225 15.4066C103.725 14.2065 104.4 13.1597 105.249 12.2701C106.096 11.3805 107.09 10.6827 108.225 10.1765C109.363 9.66657 110.587 9.40967 111.89 9.40967C112.937 9.40967 113.945 9.61481 114.912 10.0232C115.878 10.4277 116.739 11.0584 117.496 11.9173L118.087 9.83912H121.3ZM111.89 25.7211C112.646 25.7211 113.365 25.5524 114.045 25.2149C114.724 24.8737 115.312 24.4078 115.809 23.8192C116.309 23.2326 116.702 22.5462 116.99 21.764C117.276 20.978 117.419 20.1382 117.419 19.2487C117.419 18.3591 117.276 17.5232 116.99 16.741C116.702 15.9588 116.309 15.2743 115.809 14.6858C115.312 14.0991 114.724 13.6351 114.045 13.2977C113.365 12.9565 112.646 12.7839 111.89 12.7839C111.133 12.7839 110.414 12.9565 109.735 13.2977C109.055 13.6351 108.466 14.0991 107.971 14.6858C107.475 15.2743 107.082 15.9588 106.79 16.741C106.503 17.5232 106.361 18.3591 106.361 19.2487C106.361 20.1382 106.503 20.978 106.79 21.764C107.082 22.5462 107.475 23.2326 107.971 23.8192C108.466 24.4078 109.055 24.8737 109.735 25.2149C110.414 25.5524 111.133 25.7211 111.89 25.7211Z" fill="white"/>
<path d="M136.514 13.3284C136.33 13.2517 136.146 13.175 135.962 13.0983C135.802 13.0427 135.618 12.9891 135.409 12.9373C135.204 12.8874 134.984 12.8606 134.75 12.8606C133.987 12.8606 133.279 12.9871 132.626 13.2364C131.976 13.4818 131.416 13.8154 130.946 14.2333C130.475 14.6532 130.103 15.144 129.827 15.7057C129.551 16.2694 129.412 16.8618 129.412 17.4849L129.374 28.6199H125.57V9.83912H128.592L129.374 11.9173C129.896 11.162 130.58 10.5561 131.429 10.0999C132.283 9.63973 133.348 9.40967 134.627 9.40967C135.465 9.40967 136.418 9.52853 137.488 9.76243L136.514 13.3284Z" fill="white"/>
<path d="M157.797 9.83912V28.6199H154.584L153.993 26.465C153.338 27.3296 152.502 27.9834 151.486 28.4282C150.467 28.8672 149.434 29.0877 148.387 29.0877C147.084 29.0877 145.86 28.8346 144.722 28.3285C143.587 27.8185 142.594 27.1168 141.746 26.2272C140.897 25.3376 140.222 24.2928 139.722 23.0907C139.225 21.8905 138.978 20.6099 138.978 19.2487C138.978 17.8894 139.225 16.6087 139.722 15.4066C140.222 14.2065 140.897 13.1597 141.746 12.2701C142.594 11.3805 143.587 10.6827 144.722 10.1765C145.86 9.66657 147.084 9.40967 148.387 9.40967C149.434 9.40967 150.443 9.61481 151.409 10.0232C152.375 10.4277 153.236 11.0584 153.993 11.9173L154.584 9.83912H157.797ZM148.387 25.7211C149.143 25.7211 149.862 25.5524 150.542 25.2149C151.221 24.8737 151.81 24.4078 152.306 23.8192C152.806 23.2326 153.199 22.5462 153.487 21.764C153.773 20.978 153.916 20.1382 153.916 19.2487C153.916 18.3591 153.773 17.5232 153.487 16.741C153.199 15.9588 152.806 15.2743 152.306 14.6858C151.81 14.0991 151.221 13.6351 150.542 13.2977C149.862 12.9565 149.143 12.7839 148.387 12.7839C147.63 12.7839 146.911 12.9565 146.232 13.2977C145.552 13.6351 144.963 14.0991 144.469 14.6858C143.972 15.2743 143.579 15.9588 143.288 16.741C143 17.5232 142.858 18.3591 142.858 19.2487C142.858 20.1382 143 20.978 143.288 21.764C143.579 22.5462 143.972 23.2326 144.469 23.8192C144.963 24.4078 145.552 24.8737 146.232 25.2149C146.911 25.5524 147.63 25.7211 148.387 25.7211Z" fill="white"/>
</svg>
