<svg width="53" height="30" viewBox="0 0 53 30" fill="none" xmlns="http://www.w3.org/2000/svg">
<mask id="mask0_2_388" style="mask-type:luminance" maskUnits="userSpaceOnUse" x="0" y="0" width="53" height="30">
<path d="M0 0H52.9682V30H0V0Z" fill="white"/>
</mask>
<g mask="url(#mask0_2_388)">
<path d="M15.1174 28.7457C15.1174 29.4254 14.5648 29.978 13.8753 29.978C13.1907 29.978 12.6381 29.4279 12.6381 28.7457C12.6381 25.4132 13.8362 22.357 15.8313 19.978C15.2249 19.2005 14.4719 18.5428 13.6064 18.0562C12.5257 17.445 11.2689 17.0953 9.92665 17.0953C7.87042 17.0953 6.00978 17.9218 4.66259 19.2567C3.3154 20.5917 2.48411 22.4376 2.48411 24.4768C2.48411 25.1565 1.9291 25.709 1.24205 25.709C0.557457 25.709 0 25.1589 0 24.4768C0 21.7579 1.11247 19.2983 2.90709 17.5183C3.72127 16.7115 4.67482 16.0464 5.72861 15.555C5.60391 15.4499 5.48166 15.3374 5.3643 15.22C4.19804 14.0636 3.47433 12.4645 3.47433 10.6968C3.47433 8.93153 4.19804 7.33007 5.3643 6.17359C6.53056 5.01711 8.14425 4.30073 9.92665 4.30073C11.7066 4.30073 13.3203 5.01711 14.489 6.17359C15.6553 7.33007 16.3765 8.93153 16.3765 10.6968C16.3765 12.4645 15.6553 14.0611 14.489 15.22C14.3716 15.3374 14.2494 15.4499 14.1247 15.555C14.3643 15.6675 14.6015 15.7873 14.8313 15.9193C15.8875 16.5159 16.824 17.3007 17.5917 18.2225C18.7433 17.2641 20.0587 16.489 21.4866 15.9389C21.0465 15.6381 20.6357 15.2983 20.2592 14.9242C18.6675 13.3447 17.6846 11.1638 17.6846 8.75549C17.6846 6.34718 18.6675 4.16381 20.2592 2.58679C21.8509 1.00733 24.0538 0.0317764 26.4817 0.0317764C28.9095 0.0317764 31.11 1.00733 32.7017 2.58679C34.2934 4.16381 35.2787 6.34718 35.2787 8.75549C35.2787 11.1638 34.2934 13.3447 32.7017 14.9242C32.3252 15.2983 31.9144 15.6381 31.4768 15.9389C32.9022 16.4865 34.2176 17.2641 35.3716 18.2225C36.1369 17.3007 37.0758 16.5159 38.132 15.9193C38.3619 15.7873 38.599 15.6675 38.8386 15.555C38.7139 15.4499 38.5917 15.3374 38.4743 15.22C37.3081 14.0636 36.5844 12.4645 36.5844 10.6968C36.5844 8.93153 37.3081 7.33007 38.4743 6.17359C39.6406 5.01711 41.2543 4.30073 43.0367 4.30073C44.8166 4.30073 46.4328 5.01711 47.599 6.17359C48.7653 7.33007 49.4866 8.93153 49.4866 10.6968C49.4866 12.4645 48.7653 14.0611 47.599 15.22C47.4817 15.3374 47.3619 15.4499 47.2347 15.555C48.2885 16.044 49.2421 16.7115 50.0538 17.5183C51.8509 19.2983 52.9633 21.7579 52.9633 24.4768C52.9633 25.1565 52.4083 25.709 51.7213 25.709C51.0367 25.709 50.4792 25.1589 50.4792 24.4768C50.4792 22.4376 49.6479 20.5917 48.3007 19.2567C46.9535 17.9218 45.0929 17.0953 43.0367 17.0953C41.6944 17.0953 40.4377 17.445 39.357 18.0562C38.4914 18.5428 37.7359 19.2005 37.132 19.978C39.1271 22.357 40.3252 25.4108 40.3252 28.7457C40.3252 29.4254 39.7702 29.978 39.0856 29.978C38.401 29.978 37.8435 29.4279 37.8435 28.7457C37.8435 25.6357 36.5721 22.8191 34.5183 20.7824C32.4645 18.7457 29.6235 17.4865 26.489 17.4865C23.3521 17.4865 20.5134 18.7457 18.4597 20.7824C16.4059 22.8191 15.132 25.6357 15.132 28.7457H15.1174ZM7.11736 13.4817C7.83619 14.1931 8.82641 14.6332 9.92421 14.6332C11.0196 14.6332 12.0122 14.1931 12.7286 13.4817C13.4474 12.7702 13.8924 11.7848 13.8924 10.6993C13.8924 9.61124 13.4474 8.62835 12.7286 7.91686C12.0122 7.20537 11.0171 6.76527 9.92421 6.76527C8.82641 6.76527 7.83619 7.20537 7.11736 7.91686C6.40098 8.62835 5.95599 9.61124 5.95599 10.6993C5.95599 11.7873 6.40098 12.7702 7.11736 13.4817ZM43.0293 14.6332C44.1247 14.6332 45.1174 14.1931 45.8337 13.4817C46.5526 12.7702 46.9976 11.7848 46.9976 10.6993C46.9976 9.61124 46.5526 8.62835 45.8337 7.91686C45.1174 7.20537 44.1247 6.76527 43.0293 6.76527C41.9315 6.76527 40.9413 7.20537 40.2225 7.91686C39.5061 8.62835 39.0611 9.61124 39.0611 10.6993C39.0611 11.7873 39.5061 12.7702 40.2225 13.4817C40.9413 14.1931 41.934 14.6332 43.0293 14.6332ZM26.4768 15.022C28.2201 15.022 29.7995 14.3227 30.9438 13.1858C32.0856 12.0538 32.7946 10.489 32.7946 8.75794C32.7946 7.02689 32.088 5.46209 30.9438 4.32762C29.802 3.19559 28.2201 2.49388 26.4768 2.49388C24.7335 2.49388 23.154 3.19559 22.0098 4.32762C20.868 5.45965 20.1589 7.02689 20.1589 8.75794C20.1589 10.4865 20.8655 12.0513 22.0098 13.1858C23.1516 14.3203 24.7335 15.022 26.4768 15.022Z" fill="#797979"/>
</g>
</svg>
