<svg width="40" height="30" viewBox="0 0 40 30" fill="none" xmlns="http://www.w3.org/2000/svg">
<mask id="mask0_2_456" style="mask-type:luminance" maskUnits="userSpaceOnUse" x="0" y="0" width="40" height="30">
<path d="M0 0H39.7738V30H0V0Z" fill="white"/>
</mask>
<g mask="url(#mask0_2_456)">
<path d="M38.3901 28.5161V25.7417L37.2244 25.2511L35.6631 25.6995V28.5161H38.3901ZM0 24.8221L2.46674 23.7778L4.10889 24.2507V16.5657L9.82301 14.6756L13.0036 16.2633V3.66583L19.0008 0.0896702L26.561 2.90277V16.3688L29.9508 14.6756L35.6631 16.5657V24.2507L37.3088 23.7778L39.7738 24.8221V29.9103H0V24.8221ZM1.3837 25.7417V28.5161H4.10889V25.6995L2.54586 25.2476L1.3837 25.7417ZM9.04589 28.5161V16.3986L5.49786 17.5696V28.5161H9.04589ZM10.4296 16.5287V28.5161H13.0036V17.8157L10.4296 16.5287ZM29.36 28.5161V16.5182L26.7684 17.8157V28.5161H29.36ZM30.749 16.4057V28.5161H34.2759V17.5696L30.749 16.4057ZM19.8306 4.74184L25.172 6.4719V3.87154L19.8306 1.88302V4.74184ZM19.8306 9.82829L25.172 11.5531V7.9312L19.8306 6.20114V9.82829ZM14.389 12.0084L18.4417 9.90916V6.38927L14.389 8.48855V12.0084ZM19.8306 14.9095L25.172 16.6395V13.0141L19.8306 11.2876V14.9095ZM14.389 17.0896L18.4417 14.9921V11.4722L14.389 13.5715V17.0896ZM18.4417 21.6398L14.389 23.7391V28.5161H18.4417V21.6398ZM25.172 23.1817L19.8306 21.4552V28.5161H25.172V23.1817ZM19.8306 19.9924L25.172 21.7207V18.0988L19.8306 16.3688V19.9924ZM14.389 22.1761L18.4417 20.0768V16.5586L14.389 18.6526V22.1761ZM14.389 4.45877V6.922L18.4417 4.82799V2.03599L14.389 4.45877Z" fill="#797979"/>
</g>
</svg>
