<svg width="31" height="30" viewBox="0 0 31 30" fill="none" xmlns="http://www.w3.org/2000/svg">
<mask id="mask0_2_344" style="mask-type:luminance" maskUnits="userSpaceOnUse" x="0" y="0" width="31" height="30">
<path d="M0 0H30.241V30H0V0Z" fill="white"/>
</mask>
<g mask="url(#mask0_2_344)">
<path d="M15.0908 30C14.8654 30 14.6291 29.9249 14.4367 29.7747L0.474127 19.0606C0.118921 18.7821 -0.0312977 18.322 0.107968 17.8933L5.4783 0.751095C5.60818 0.322345 5.99468 0.0219067 6.44533 -4.19504e-07C6.89599 -0.0203425 7.3044 0.225328 7.48748 0.632171L11.5043 9.64375H18.7007L22.7175 0.632171C22.899 0.225328 23.3184 -0.0203425 23.7596 -4.19504e-07C24.2103 0.0219067 24.5859 0.322345 24.7251 0.751095L30.0954 17.8933C30.2253 18.322 30.0845 18.7821 29.7309 19.0606L15.7683 29.7747C15.5743 29.9249 15.338 30 15.1127 30H15.0908ZM2.37377 17.8182L15.0908 27.5777L27.8077 17.8182L23.5124 4.10442L20.375 11.1538C20.2045 11.5387 19.818 11.7859 19.3986 11.7859H10.7954C10.3651 11.7859 9.98957 11.5387 9.81744 11.1538L6.68162 4.10442L2.38473 17.8182H2.37377Z" fill="#797979"/>
</g>
</svg>
