<svg width="55" height="29" viewBox="0 0 55 29" fill="none" xmlns="http://www.w3.org/2000/svg">
<path d="M49.1773 14.3163C48.2278 13.4943 47.3325 12.7157 46.4372 11.9425C44.0661 9.89964 41.695 7.85951 39.3212 5.81667C38.4476 5.06248 38.4205 4.69894 39.1693 3.85522C39.5274 3.45099 39.8882 3.04134 40.249 2.65611C40.6885 2.20847 40.9517 2.21661 41.4509 2.63711C42.905 3.86879 44.3618 5.09503 45.8105 6.33484C48.6211 8.75207 51.429 11.1666 54.2315 13.5838C54.3943 13.7249 54.5625 13.8632 54.7171 14.0152C55.0996 14.3977 55.0942 14.726 54.7008 15.1329C54.576 15.2604 54.4404 15.3798 54.3047 15.4964C51.2228 18.2039 48.1437 20.9114 45.0645 23.6189C44.2289 24.3569 43.4015 25.1029 42.5686 25.8463C42.4357 25.9656 42.3054 26.0931 42.1725 26.2071C41.3885 26.8772 41.1036 26.7415 40.5719 26.0877C40.07 25.4719 39.5491 24.8723 39.0689 24.2456C38.7461 23.8224 38.784 23.5837 39.1666 23.2066C39.3999 22.9814 39.6495 22.7752 39.8855 22.5636L48.9575 14.574C49.0362 14.4926 49.1095 14.4058 49.1773 14.3163ZM53.7106 14.5984C53.4963 14.3841 53.3525 14.2241 53.1951 14.0884C52.4898 13.4726 51.7817 12.8595 51.0709 12.2545C47.8995 9.54424 44.7281 6.83945 41.5567 4.13194C40.8486 3.52424 40.8513 3.52153 40.2165 4.24046C39.7797 4.73693 39.777 4.79661 40.3141 5.27137C41.1253 5.98216 41.9473 6.6821 42.7639 7.38475L49.7117 13.3641C49.9044 13.5295 50.097 13.6923 50.2706 13.8741C50.5609 14.1752 50.5609 14.5143 50.2706 14.8318C50.0698 15.0407 49.861 15.236 49.6412 15.4205C46.5892 18.1036 43.5398 20.7866 40.4878 23.4697C40.3575 23.6054 40.2382 23.7465 40.1269 23.8984C40.5013 24.3487 40.8486 24.7638 41.1931 25.168C41.3749 25.3742 41.5078 25.3661 41.7439 25.168C41.8252 25.1002 41.9039 25.0242 41.9853 24.951L49.9152 17.9625C51.1469 16.8637 52.3813 15.765 53.7106 14.5903V14.5984Z" fill="#797979"/>
<mask id="mask0_21_1465" style="mask-type:luminance" maskUnits="userSpaceOnUse" x="0" y="2" width="17" height="26">
<path d="M0 2.06445H16.8799V27.0669H0V2.06445Z" fill="white"/>
</mask>
<g mask="url(#mask0_21_1465)">
<path d="M5.93048 14.3597C6.61957 14.9755 7.23269 15.529 7.85124 16.0743L15.4719 22.7806C16.4784 23.6623 16.4919 23.7573 15.6509 24.7719C15.1924 25.3281 14.7285 25.8788 14.2483 26.4133C14.1995 26.4811 14.1398 26.5353 14.0693 26.5787C13.9987 26.6222 13.9201 26.6493 13.8387 26.6601C13.7573 26.671 13.6759 26.6656 13.5945 26.6439C13.5158 26.6194 13.4426 26.5815 13.3802 26.5299C13.1415 26.3671 12.9163 26.1908 12.702 26.0009L0.973951 15.6348C0.794898 15.4693 0.591427 15.3065 0.415087 15.1247C0.0217105 14.7205 0.0189976 14.4004 0.401522 14.007C0.553446 13.8551 0.721648 13.7194 0.884424 13.5784C3.17414 11.6061 5.46386 9.63376 7.75357 7.66417C9.69332 6.00114 11.6412 4.34896 13.5891 2.70221C13.6732 2.63439 13.7437 2.55029 13.8305 2.48789C14.129 2.26272 14.4654 2.24373 14.7123 2.49874C15.2521 3.07117 15.792 3.65445 16.3047 4.26215C16.6086 4.62297 16.5272 5.14657 16.123 5.52909C15.6536 5.97401 15.1545 6.38638 14.6634 6.8096C12.0183 9.07761 9.37048 11.3483 6.72266 13.6218C6.4785 13.8307 6.25332 14.0586 5.93048 14.3597ZM14.9917 23.8333C14.8099 23.6542 14.6797 23.4941 14.5223 23.3558L5.37162 15.3065C5.179 15.1437 4.99995 14.9701 4.83174 14.7829C4.70695 14.6635 4.64184 14.5198 4.64184 14.3461C4.63913 14.1752 4.69881 14.026 4.82089 13.9066C4.9701 13.7493 5.12745 13.6028 5.29294 13.4671C6.13395 12.7401 6.97767 12.013 7.82411 11.2778C10.1111 9.30821 12.3981 7.33862 14.6878 5.36903C15.4068 4.7559 15.3905 4.73691 14.7258 4.03426C14.5793 3.88234 14.4057 3.76026 14.2185 3.59748C10.008 7.07818 5.92234 10.6484 1.81225 14.1861C1.6766 14.319 1.54909 14.4601 1.43244 14.6093L13.5158 25.2575C13.543 25.282 13.5755 25.2955 13.6108 25.3037C13.6786 25.3091 13.7437 25.3091 13.8088 25.3037C14.2456 24.8479 14.639 24.3596 14.9917 23.8333Z" fill="#797979"/>
</g>
<mask id="mask1_21_1465" style="mask-type:luminance" maskUnits="userSpaceOnUse" x="18" y="0" width="20" height="29">
<path d="M18.2689 0H37.0207V28.087H18.2689V0Z" fill="white"/>
</mask>
<g mask="url(#mask1_21_1465)">
<path d="M20.678 27.9704C20.1381 27.9704 19.5955 27.9921 19.0556 27.9704C18.9634 27.9731 18.8766 27.9514 18.7952 27.908C18.7111 27.8646 18.646 27.8022 18.5944 27.7235C18.5456 27.6448 18.5158 27.5607 18.5103 27.4658C18.5022 27.3735 18.5185 27.284 18.5565 27.1999C18.6921 26.8635 18.844 26.538 19.015 26.2233C22.558 19.4572 26.1038 12.6884 29.6497 5.91423C30.469 4.34615 31.2883 2.78079 32.1103 1.22085C32.2107 1.03095 32.3083 0.838329 32.4141 0.648424C32.5037 0.463944 32.6339 0.317446 32.8048 0.208929C32.9757 0.0976988 33.1629 0.0407271 33.3664 0.0325882C34.3078 3.29586e-05 35.241 3.296e-05 36.1743 0.0108847C36.2665 0.00545848 36.356 0.0217368 36.4401 0.0597175C36.5242 0.100412 36.5948 0.15467 36.6517 0.230632C36.706 0.303882 36.7413 0.387983 36.7548 0.480222C36.7711 0.572462 36.763 0.661989 36.7304 0.751516C36.6382 1.09877 36.5052 1.43246 36.337 1.74988C35.629 3.12805 34.8965 4.49537 34.1775 5.87082C32.1537 9.73675 30.1298 13.6 28.1033 17.4659C26.3941 20.7296 24.6714 23.9688 22.9867 27.2379C22.7045 27.7805 22.3763 28.0843 21.7496 28.0274C21.3888 27.9948 21.028 28.0274 20.6671 28.0274L20.678 27.9704ZM19.9563 26.9259C20.5315 27.029 21.1093 27.048 21.6899 26.9802C21.831 26.9476 21.9449 26.8716 22.0263 26.7496C22.1457 26.5678 22.2488 26.3806 22.3356 26.1826C24.2292 22.5852 26.1201 18.9851 28.0083 15.3824C30.3794 10.8599 32.7478 6.33473 35.1135 1.81227C35.2193 1.61423 35.4499 1.42704 35.2817 1.08792C34.8015 1.08792 34.3023 1.08792 33.8059 1.07707C33.6784 1.0635 33.5563 1.09063 33.4451 1.15574C33.3338 1.22357 33.2524 1.31852 33.2063 1.4406C33.1304 1.60338 33.0381 1.75801 32.954 1.91536L24.5331 17.9678C23.163 20.5831 21.793 23.1983 20.4257 25.8109C20.2493 26.1527 20.0025 26.4728 19.9482 26.9259H19.9563Z" fill="#797979"/>
</g>
</svg>
