<svg width="31" height="38" viewBox="0 0 31 38" fill="none" xmlns="http://www.w3.org/2000/svg">
<mask id="mask0_21_1449" style="mask-type:luminance" maskUnits="userSpaceOnUse" x="0" y="0" width="31" height="38">
<path d="M0 0H30.8883V38H0V0Z" fill="white"/>
</mask>
<g mask="url(#mask0_21_1449)">
<path d="M19.7385 28.088C23.486 22.2263 27.5851 15.7225 27.5851 12.1776C27.5851 5.46136 22.0822 -0.00244141 15.3172 -0.00244141C8.55214 -0.00244141 3.04684 5.46136 3.04684 12.1776C3.04684 15.5174 7.30704 22.3776 10.9325 28.1076C5.62249 28.6056 0.0195312 30.1095 0.0195312 32.9464C0.0195312 34.4917 1.70408 35.7954 4.89007 36.7158C13.8792 39.3135 30.8736 37.8535 30.8736 32.9464C30.8736 30.0607 25.1535 28.5641 19.7385 28.088ZM15.3172 32.0162C12.1043 26.6598 4.69721 15.9812 4.69721 12.1776C4.69721 6.36466 9.46033 1.63572 15.3172 1.63572C21.1716 1.63572 25.9347 6.36466 25.9347 12.1776C25.9347 16.2303 18.5642 26.6134 15.3172 32.0162Z" fill="#797979"/>
</g>
</svg>
