<svg width="38" height="37" viewBox="0 0 38 37" fill="none" xmlns="http://www.w3.org/2000/svg">
<path d="M12.1381 26.1042V29.2599H25.8618V26.1042H12.1381Z" fill="#797979"/>
<path d="M17.4143 21.3691C17.4143 21.0765 17.1814 20.8406 16.8888 20.8406C16.656 20.8406 16.4641 20.9947 16.3917 21.2024L16.3886 21.1992L15.4542 23.9994H12.6666C12.374 23.9994 12.1381 24.2353 12.1381 24.5279C12.1381 24.8174 12.374 25.0534 12.6666 25.0534H16.2124L17.3891 21.5359L17.3828 21.5327C17.4017 21.4793 17.4174 21.4258 17.4174 21.3691H17.4143Z" fill="#797979"/>
<mask id="mask0_21_1426" style="mask-type:luminance" maskUnits="userSpaceOnUse" x="0" y="15" width="16" height="22">
<path d="M0 15.7908H15.3063V36.1027H0V15.7908Z" fill="white"/>
</mask>
<g mask="url(#mask0_21_1426)">
<path d="M13.7206 20.8436H9.1775L7.84351 17.2098L7.83721 17.2129C7.63271 16.5742 7.04437 16.1023 6.33332 16.1023C6.07848 16.1023 5.83937 16.1715 5.62543 16.2785L5.62228 16.2722C1.99784 18.0813 0 22.1304 0 27.6835C0 28.555 0.707897 29.2598 1.58254 29.2598H6.33332V34.5265C6.33332 35.398 7.04122 36.1028 7.91902 36.1028C8.79052 36.1028 9.49841 35.398 9.49841 34.5265V27.6835C9.49841 26.812 8.79052 26.1041 7.91902 26.1041H3.23116C3.42623 23.8325 4.09951 21.3879 5.88027 19.8683L7.50057 22.3633H7.50372C7.67676 22.7062 8.03228 22.9453 8.44443 22.9453H13.7238C14.3027 22.9453 14.7746 22.4734 14.7746 21.8913C14.7746 21.3156 14.3027 20.8405 13.7206 20.8405V20.8436Z" fill="#797979"/>
</g>
<path d="M12.9311 15.0546C12.9311 16.3572 11.8677 17.4206 10.5557 17.4206C9.24372 17.4206 8.1803 16.3572 8.1803 15.0546C8.1803 13.7458 9.24372 12.6855 10.5557 12.6855C11.8677 12.6855 12.9311 13.7458 12.9311 15.0546Z" fill="#797979"/>
<path d="M25.3333 23.9994H22.5458L21.6113 21.1992L21.605 21.2024C21.5327 20.9947 21.3439 20.8406 21.1111 20.8406C20.8185 20.8406 20.5825 21.0765 20.5825 21.3691C20.5825 21.4258 20.5951 21.4793 20.6171 21.5327H20.6077L21.7844 25.0534H25.3333C25.6228 25.0534 25.8619 24.8174 25.8619 24.5248C25.8619 24.2353 25.6228 23.9994 25.3333 23.9994Z" fill="#797979"/>
<path d="M29.8199 15.0546C29.8199 16.3572 28.7565 17.4206 27.4445 17.4206C26.1325 17.4206 25.0691 16.3572 25.0691 15.0546C25.0691 13.7458 26.1325 12.6855 27.4445 12.6855C28.7565 12.6855 29.8199 13.7458 29.8199 15.0546Z" fill="#797979"/>
<mask id="mask1_21_1426" style="mask-type:luminance" maskUnits="userSpaceOnUse" x="22" y="15" width="16" height="22">
<path d="M22.5553 15.7908H38.0001V36.1027H22.5553V15.7908Z" fill="white"/>
</mask>
<g mask="url(#mask1_21_1426)">
<path d="M32.3716 16.2722V16.2785C32.1577 16.1715 31.9217 16.1023 31.6637 16.1023C30.9589 16.1023 30.3643 16.5711 30.163 17.2129L30.1567 17.2098L28.8227 20.8436H24.2764C23.6975 20.8436 23.2224 21.3156 23.2224 21.8913C23.2224 22.4734 23.6975 22.9453 24.2764 22.9453H29.5557C29.971 22.9453 30.3234 22.7062 30.4965 22.3633H30.4996L32.123 19.8683C33.9038 21.3848 34.5771 23.8325 34.769 26.1041H30.0843C29.2097 26.1041 28.5018 26.812 28.5018 27.6835V34.5265C28.5018 35.398 29.2097 36.1028 30.0843 36.1028C30.9589 36.1028 31.6668 35.398 31.6668 34.5265V29.2598H36.4145C37.2923 29.2598 38.0002 28.555 38.0002 27.6835C38.0002 22.1304 36.0023 18.0813 32.3716 16.2722Z" fill="#797979"/>
</g>
<mask id="mask2_21_1426" style="mask-type:luminance" maskUnits="userSpaceOnUse" x="12" y="0" width="13" height="12">
<path d="M12.8901 0H24.9716V11.7637H12.8901V0Z" fill="white"/>
</mask>
<g mask="url(#mask2_21_1426)">
<path d="M19 1.10427C16.5271 1.10427 14.5135 3.10841 14.5135 5.57819C14.5135 8.04482 16.5271 10.049 19 10.049C21.473 10.049 23.4865 8.04482 23.4865 5.57819C23.4865 3.10841 21.473 1.10427 19 1.10427ZM19 11.1029C15.9419 11.1029 13.4564 8.62687 13.4564 5.57819C13.4564 2.53265 15.9419 0.050293 19 0.050293C22.055 0.050293 24.5405 2.53265 24.5405 5.57819C24.5405 8.62372 22.055 11.1029 19 11.1029Z" fill="#797979"/>
</g>
<path d="M21.6365 3.47344C21.6365 3.18399 21.4006 2.94802 21.1111 2.94802C20.9632 2.94802 20.8311 3.00466 20.7367 3.10219L19.5254 4.30719V2.41946C19.5254 2.13001 19.2894 1.89404 19 1.89404C18.7074 1.89404 18.4714 2.13001 18.4714 2.41946V5.57826C18.4714 5.86771 18.7074 6.10367 19 6.10367C19.1447 6.10367 19.2769 6.0439 19.3713 5.94951L21.4824 3.84784C21.5767 3.75031 21.6365 3.61817 21.6365 3.47344Z" fill="#797979"/>
</svg>
