<svg width="43" height="38" viewBox="0 0 43 38" fill="none" xmlns="http://www.w3.org/2000/svg">
<path d="M10.3074 33.3081H32.606L33.5901 20.1439C33.5971 20.0343 33.5458 19.9597 33.5132 19.9271C33.4829 19.8921 33.4129 19.8338 33.3033 19.8338H9.60783C9.50055 19.8338 9.43059 19.8921 9.39795 19.9271C9.3653 19.9597 9.31399 20.0343 9.32099 20.1439L10.3074 33.3081ZM33.1517 34.4857H9.75941C9.45158 34.4857 9.19506 34.2479 9.17174 33.9401L8.14799 20.2302C8.11768 19.8268 8.2576 19.4233 8.53511 19.1272C8.81028 18.8287 9.20206 18.6584 9.60783 18.6584H33.3033C33.7091 18.6584 34.1008 18.8287 34.3783 19.1272C34.6535 19.4233 34.7958 19.8268 34.7655 20.2302L33.7394 33.9401C33.7161 34.2479 33.4595 34.4857 33.1517 34.4857Z" fill="#797979"/>
<path d="M21.4568 19.6657C21.2772 19.6657 21.1093 19.5864 20.9974 19.4465L18.67 16.5641C18.5861 16.4615 18.5394 16.3309 18.5394 16.1957V14.1319C18.5394 13.8077 18.8029 13.5442 19.1294 13.5442C19.4536 13.5442 19.7171 13.8077 19.7171 14.1319V15.9881L21.4568 18.1406L23.1941 15.9881V14.1319C23.1941 13.8077 23.4576 13.5442 23.7841 13.5442C24.1082 13.5442 24.3718 13.8077 24.3718 14.1319V16.1957C24.3718 16.3309 24.3275 16.4615 24.2412 16.5641L21.9138 19.4465C21.8019 19.5864 21.634 19.6657 21.4568 19.6657Z" fill="#797979"/>
<mask id="mask0_21_1448" style="mask-type:luminance" maskUnits="userSpaceOnUse" x="14" y="0" width="14" height="9">
<path d="M14.8525 0H27.9864V8.94556H14.8525V0Z" fill="white"/>
</mask>
<g mask="url(#mask0_21_1448)">
<path d="M26.9369 8.78931C26.6127 8.78931 26.3492 8.5258 26.3492 8.20165V6.0632C26.3492 3.37907 24.1618 1.18466 21.473 1.17533C21.4683 1.17533 21.4614 1.17533 21.4567 1.17533C20.1694 1.17533 18.9521 1.68371 18.0263 2.60485C17.0819 3.54464 16.5618 4.7876 16.5618 6.10518V8.20165C16.5618 8.5258 16.2983 8.78931 15.9742 8.78931C15.6477 8.78931 15.3842 8.5258 15.3842 8.20165V6.10518C15.3842 5.28198 15.5474 4.47977 15.8715 3.72187C16.184 2.99196 16.6294 2.33433 17.1961 1.77232C18.3435 0.627308 19.8569 0 21.4567 0C21.4637 0 21.4707 0 21.4777 0C23.0938 0.0046643 24.6142 0.638969 25.7569 1.78165C26.8972 2.92666 27.5269 4.44713 27.5269 6.0632V8.20165C27.5269 8.5258 27.2634 8.78931 26.9369 8.78931Z" fill="#797979"/>
</g>
<path d="M17.9866 7.71414V10.7994C17.9866 12.7116 19.5421 14.2671 21.4566 14.2671C23.3689 14.2671 24.9243 12.7116 24.9243 10.7994V7.35501L23.8073 6.10739C22.035 7.44596 19.2202 7.67916 17.9866 7.71414ZM21.4566 15.4424C18.8938 15.4424 16.809 13.3599 16.809 10.7994V7.13114C16.809 6.97023 16.8719 6.81865 16.9862 6.70672C17.1005 6.59711 17.2544 6.53648 17.4153 6.54114C17.4573 6.54348 21.6665 6.64375 23.4435 4.8691C23.5578 4.75483 23.714 4.69187 23.8773 4.69653C24.0382 4.7012 24.1921 4.77349 24.2993 4.89242L25.9527 6.73703C26.0507 6.8443 26.1043 6.98422 26.1043 7.13114V10.7994C26.1043 13.3599 24.0195 15.4424 21.4566 15.4424Z" fill="#797979"/>
<path d="M16.8091 8.56302C16.3333 8.57002 15.9462 8.95946 15.9462 9.43519C15.9462 9.91325 16.3333 10.3004 16.8091 10.3074V8.56302ZM17.3967 11.485H16.8207C15.6897 11.485 14.7686 10.5662 14.7686 9.43519C14.7686 8.3065 15.6897 7.3877 16.8207 7.3877H17.3967C17.7232 7.3877 17.9867 7.65121 17.9867 7.97536V10.8974C17.9867 11.2215 17.7232 11.485 17.3967 11.485Z" fill="#797979"/>
<path d="M26.1043 8.56302V10.3074C26.58 10.3004 26.9648 9.91325 26.9648 9.43519C26.9648 8.95946 26.58 8.57002 26.1043 8.56302ZM26.0903 11.485H25.5143C25.1902 11.485 24.9243 11.2215 24.9243 10.8974V7.97536C24.9243 7.65121 25.1902 7.3877 25.5143 7.3877H26.0903C27.2213 7.3877 28.1425 8.3065 28.1425 9.43519C28.1425 10.5662 27.2213 11.485 26.0903 11.485Z" fill="#797979"/>
<path d="M11.8955 19.8338C11.7673 19.8338 11.6367 19.7918 11.5271 19.7056C11.2729 19.5003 11.2332 19.1296 11.4384 18.8777C12.0891 18.0685 12.9612 17.4762 13.9547 17.1707L18.9755 15.6199C19.2856 15.5243 19.6144 15.6992 19.7101 16.0093C19.8057 16.3218 19.6308 16.6506 19.3206 16.7463L19.302 16.7509L14.3045 18.2947C13.5326 18.5326 12.861 18.9896 12.3549 19.6146C12.2383 19.7592 12.0681 19.8338 11.8955 19.8338Z" fill="#797979"/>
<path d="M31.0156 19.8338C30.843 19.8338 30.6728 19.7592 30.5562 19.6146C30.0525 18.9896 29.3785 18.5326 28.609 18.2947L23.5905 16.7463C23.2804 16.6506 23.1055 16.3218 23.2011 16.0093C23.2967 15.6992 23.6255 15.5243 23.938 15.6199L23.9566 15.6269L28.9565 17.1707C29.9499 17.4762 30.8221 18.0685 31.475 18.8777C31.6779 19.1296 31.6383 19.5003 31.3841 19.7056C31.2768 19.7918 31.1462 19.8338 31.0156 19.8338Z" fill="#797979"/>
<path d="M18.558 29.4601C18.4321 29.4601 18.3061 29.4204 18.1989 29.3388L15.2116 27.0371C15.067 26.9252 14.983 26.755 14.983 26.5707C14.983 26.3888 15.067 26.2163 15.2116 26.1043L18.1989 23.805C18.4554 23.6068 18.8262 23.6534 19.0244 23.9123C19.2226 24.1688 19.176 24.5396 18.9171 24.7378L16.5361 26.5707L18.9171 28.406C19.176 28.6042 19.2226 28.9727 19.0244 29.2315C18.9078 29.3808 18.7329 29.4601 18.558 29.4601Z" fill="#797979"/>
<path d="M24.3554 29.4601C24.1782 29.4601 24.0033 29.3808 23.8867 29.2315C23.6885 28.9727 23.7374 28.6042 23.9939 28.406L26.3749 26.5707L23.9939 24.7378C23.7374 24.5396 23.6885 24.1688 23.8867 23.9123C24.0872 23.6534 24.4557 23.6068 24.7145 23.805L27.6995 26.1043C27.8441 26.2163 27.928 26.3888 27.928 26.5707C27.928 26.755 27.8441 26.9252 27.6995 27.0371L24.7145 29.3388C24.6073 29.4204 24.479 29.4601 24.3554 29.4601Z" fill="#797979"/>
<path d="M20.37 31.214C20.3187 31.214 20.2674 31.207 20.2161 31.193C19.9013 31.109 19.7147 30.7872 19.7987 30.4724L21.9744 22.3663C22.0584 22.0515 22.3802 21.865 22.695 21.9513C23.0098 22.0352 23.1964 22.357 23.1124 22.6718L20.9367 30.7779C20.8667 31.0391 20.6289 31.214 20.37 31.214Z" fill="#797979"/>
<mask id="mask1_21_1448" style="mask-type:luminance" maskUnits="userSpaceOnUse" x="0" y="33" width="43" height="5">
<path d="M0 33.3127H42.9135V38.0001H0V33.3127Z" fill="white"/>
</mask>
<g mask="url(#mask1_21_1448)">
<path d="M1.17766 36.8246H41.7335C41.6962 35.5326 40.6351 34.4949 39.3339 34.4949H3.57729C2.27837 34.4949 1.21497 35.5326 1.17766 36.8246ZM42.3235 37.9999H0.587664C0.263516 37.9999 0 37.7364 0 37.4122V36.8945C0 34.9217 1.60442 33.3196 3.57729 33.3196H39.3339C41.3067 33.3196 42.9135 34.9217 42.9135 36.8945V37.4122C42.9135 37.7364 42.65 37.9999 42.3235 37.9999Z" fill="#797979"/>
</g>
</svg>
